<svg xmlns="http://www.w3.org/2000/svg" viewBox="0 0 32 32">
  <!-- Lime green background with rounded corners -->
  <rect width="32" height="32" rx="4" fill="#32cd32"/>
  
  <!-- Central white circle -->
  <circle cx="16" cy="16" r="3" fill="white"/>
  
  <!-- Radiating lines and smaller circles -->
  <!-- Top -->
  <line x1="16" y1="13" x2="16" y2="8" stroke="white" stroke-width="1.5"/>
  <circle cx="16" cy="6" r="1.5" fill="white"/>
  
  <!-- Top-right -->
  <line x1="19" y1="13" x2="22" y2="10" stroke="white" stroke-width="1.5"/>
  <circle cx="24" cy="8" r="1.5" fill="white"/>
  
  <!-- Right -->
  <line x1="19" y1="16" x2="22" y2="16" stroke="white" stroke-width="1.5"/>
  <circle cx="24" cy="16" r="1.5" fill="white"/>
  
  <!-- Bottom-right -->
  <line x1="19" y1="19" x2="22" y2="22" stroke="white" stroke-width="1.5"/>
  <circle cx="24" cy="24" r="1.5" fill="white"/>
  
  <!-- Bottom -->
  <line x1="16" y1="19" x2="16" y2="22" stroke="white" stroke-width="1.5"/>
  <circle cx="16" cy="26" r="1.5" fill="white"/>
  
  <!-- Bottom-left -->
  <line x1="13" y1="19" x2="10" y2="22" stroke="white" stroke-width="1.5"/>
  <circle cx="8" cy="24" r="1.5" fill="white"/>
  
  <!-- Left -->
  <line x1="13" y1="16" x2="10" y2="16" stroke="white" stroke-width="1.5"/>
  <circle cx="8" cy="16" r="1.5" fill="white"/>
  
  <!-- Top-left -->
  <line x1="13" y1="13" x2="10" y2="10" stroke="white" stroke-width="1.5"/>
  <circle cx="8" cy="8" r="1.5" fill="white"/>
</svg> 